<svg aria-hidden="true" style="position: absolute; width: 0; height: 0; overflow: hidden;" version="1.1" xmlns="http://www.w3.org/2000/svg" xmlns:xlink="http://www.w3.org/1999/xlink">
<defs>
<symbol id="arrow-left" viewBox="0 0 32 32">
<path d="M0.195 16.472l10 10c0.121 0.121 0.288 0.196 0.472 0.196 0.368 0 0.667-0.299 0.667-0.667 0-0.184-0.075-0.351-0.195-0.471v0l-8.863-8.863h29.057c0.368 0 0.667-0.298 0.667-0.667s-0.298-0.667-0.667-0.667v0h-29.057l8.863-8.861c0.121-0.121 0.195-0.288 0.195-0.472 0-0.369-0.299-0.668-0.668-0.668-0.184 0-0.351 0.075-0.472 0.196v0l-10 10c-0.121 0.121-0.195 0.287-0.195 0.471s0.075 0.351 0.195 0.471v0z"></path>
</symbol>
<symbol id="arrow-right" viewBox="0 0 32 32">
<path d="M31.805 15.528l-10-10c-0.121-0.12-0.287-0.195-0.471-0.195-0.368 0-0.667 0.299-0.667 0.667 0 0.184 0.075 0.351 0.196 0.472v0l8.861 8.861h-29.057c-0.368 0-0.667 0.298-0.667 0.667s0.298 0.667 0.667 0.667v0h29.057l-8.861 8.861c-0.126 0.121-0.204 0.291-0.204 0.48 0 0.368 0.298 0.667 0.667 0.667 0.188 0 0.358-0.078 0.479-0.203l10-10c0.121-0.121 0.195-0.287 0.195-0.471s-0.075-0.351-0.195-0.471v0z"></path>
</symbol>
<symbol id="copyright" viewBox="0 0 32 32">
<path d="M13.44 14.48c0.068-0.439 0.213-0.827 0.4-1.159 0.187-0.334 0.453-0.615 0.786-0.828 0.32-0.199 0.72-0.293 1.214-0.306 0.306 0.012 0.587 0.066 0.841 0.172 0.267 0.121 0.507 0.281 0.693 0.48 0.185 0.201 0.332 0.441 0.453 0.708 0.119 0.267 0.172 0.56 0.185 0.853h2.388c-0.018-0.625-0.154-1.213-0.385-1.75l0.012 0.031c-0.226-0.527-0.541-0.976-0.932-1.346l-0.002-0.002c-0.404-0.372-0.883-0.671-1.41-0.87l-0.030-0.010c-0.522-0.195-1.126-0.309-1.756-0.309-0.035 0-0.069 0-0.104 0.001l0.005-0c-0.866 0-1.627 0.148-2.267 0.455-0.635 0.297-1.168 0.712-1.594 1.22l-0.006 0.007c-0.427 0.519-0.747 1.12-0.946 1.813s-0.32 1.412-0.32 2.187v0.359c0 0.773 0.107 1.493 0.308 2.187 0.199 0.693 0.519 1.292 0.946 1.799 0.427 0.508 0.96 0.921 1.6 1.214s1.399 0.453 2.267 0.453c0.626 0 1.212-0.107 1.76-0.306 0.548-0.201 1.028-0.48 1.44-0.841 0.403-0.345 0.734-0.761 0.976-1.231l0.011-0.023c0.24-0.48 0.388-0.987 0.4-1.534h-2.388c-0.012 0.281-0.080 0.533-0.199 0.775-0.25 0.473-0.661 0.832-1.159 1.009l-0.015 0.005c-0.238 0.081-0.513 0.13-0.798 0.133h-0.002c-0.48-0.014-0.88-0.107-1.188-0.308-0.327-0.209-0.592-0.487-0.78-0.815l-0.006-0.011c-0.192-0.339-0.332-0.734-0.398-1.154l-0.002-0.020c-0.065-0.399-0.104-0.861-0.107-1.331v-0.363c0-0.466 0.039-0.907 0.107-1.346zM16 2.667c-7.36 0-13.333 5.973-13.333 13.333s5.973 13.333 13.333 13.333c7.36 0 13.333-5.973 13.333-13.333s-5.973-13.333-13.333-13.333zM16 26.667c-5.881 0-10.667-4.788-10.667-10.667 0-5.881 4.786-10.667 10.667-10.667 5.879 0 10.667 4.786 10.667 10.667 0 5.879-4.788 10.667-10.667 10.667z"></path>
</symbol>
<symbol id="heart" viewBox="0 0 32 32">
<path d="M16 30.72l-2.24-2.24c-8.32-7.36-13.76-12.32-13.76-18.4 0-4.96 3.84-8.8 8.8-8.8 2.72 0 5.44 1.28 7.2 3.36 1.76-2.080 4.48-3.36 7.2-3.36 4.96 0 8.8 3.84 8.8 8.8 0 6.080-5.44 11.040-13.76 18.4l-2.24 2.24z"></path>
</symbol>
<symbol id="logout" viewBox="0 0 32 32">
<path d="M25.292 9.292l-1.414 1.416 4.296 4.292h-14.174v2h14.172l-4.292 4.292 1.414 1.414 6.706-6.706-6.708-6.708z"></path>
<path d="M22 30h-20v-28h20v2h2v-3c0-0.552-0.448-1-1-1v0h-22c-0.552 0-1 0.448-1 1v0 30c0 0.552 0.448 1 1 1v0h22c0.552 0 1-0.448 1-1v0-3h-2v2z"></path>
</symbol>
</defs>
</svg>
